<svg xmlns="http://www.w3.org/2000/svg" width="56" height="56" viewBox="0 0 56 56" fill="none"><rect width="56" height="56" rx="4" fill="#F2F5F9"></rect><path d="M41.3187 11.3366C41.0998 11.3365 40.883 11.3795 40.6807 11.4633C40.4785 11.547 40.2947 11.6697 40.1398 11.8245C39.9852 11.9793 39.8623 12.1631 39.7787 12.3654C39.695 12.5676 39.6518 12.7844 39.652 13.0033V14.0645C38.2463 15.8074 36.4698 17.2148 34.4517 18.1845C32.4333 19.1542 30.2243 19.6617 27.9853 19.67H17.9854C16.6597 19.6714 15.3888 20.1987 14.4514 21.136C13.5141 22.0734 12.9868 23.3443 12.9854 24.67V28.0033C12.9868 29.329 13.5141 30.6 14.4514 31.5373C15.3888 32.4746 16.6597 33.0018 17.9854 33.0033H18.7917L14.7871 42.3473C14.6783 42.6008 14.6341 42.8773 14.6585 43.152C14.683 43.4266 14.7752 43.6911 14.9271 43.9213C15.0789 44.1516 15.2856 44.3405 15.5284 44.4711C15.7713 44.6018 16.0429 44.6701 16.3187 44.67H22.9854C23.3116 44.6701 23.6307 44.5745 23.903 44.3948C24.1753 44.2151 24.3888 43.9593 24.5169 43.6593L29.0565 33.0666C31.1077 33.2173 33.106 33.7866 34.9283 34.7398C36.7508 35.693 38.3583 37.0096 39.652 38.6085V39.67C39.652 40.112 39.8277 40.536 40.1402 40.8485C40.4527 41.1611 40.8767 41.3366 41.3187 41.3366C41.7607 41.3366 42.1847 41.1611 42.4972 40.8485C42.8098 40.536 42.9853 40.112 42.9853 39.67V13.0033C42.9855 12.7844 42.9425 12.5676 42.8587 12.3654C42.775 12.1631 42.6523 11.9793 42.4975 11.8245C42.3427 11.6697 42.1588 11.547 41.9567 11.4633C41.7543 11.3795 41.5377 11.3365 41.3187 11.3366ZM17.9854 29.67C17.5434 29.6696 17.1197 29.494 16.8072 29.1815C16.4947 28.869 16.319 28.4453 16.3187 28.0033V24.67C16.319 24.228 16.4947 23.8043 16.8072 23.4918C17.1197 23.1793 17.5434 23.0036 17.9854 23.0033H19.652V29.67H17.9854ZM21.8867 41.3366H18.8464L22.4173 33.0033H25.4577L21.8867 41.3366ZM39.652 33.873C36.3658 31.1656 32.2432 29.6805 27.9853 29.67H22.9854V23.0032H27.9853C32.2432 22.9923 36.3658 21.5068 39.652 18.7993V33.873Z" fill="#1E386B"></path></svg>