<svg xmlns="http://www.w3.org/2000/svg" width="56" height="56" viewBox="0 0 56 56" fill="none"><rect width="56" height="56" rx="4" fill="#F2F5F9"></rect><path d="M41.6364 15.8788H26.4849L24.9697 11.3333H14.3636C12.697 11.3333 11.3333 12.697 11.3333 14.3636V37.0909C11.3333 38.7576 12.697 40.1212 14.3636 40.1212H26.4849L28 44.6667H41.6364C43.303 44.6667 44.6667 43.303 44.6667 41.6364V18.9091C44.6667 17.2424 43.303 15.8788 41.6364 15.8788ZM20.4242 34.0606C16.2424 34.0606 12.8485 30.6667 12.8485 26.4849C12.8485 22.303 16.2424 18.9091 20.4242 18.9091C22.4697 18.9091 24.1818 19.6667 25.5 20.8788L23.5 22.803C22.9242 22.2576 21.9242 21.6212 20.4242 21.6212C17.7879 21.6212 15.6515 23.803 15.6515 26.4849C15.6515 29.1667 17.7879 31.3485 20.4242 31.3485C23.4697 31.3485 24.7273 29.1667 24.8485 27.697H20.4242V25.1061H27.5152C27.6212 25.5758 27.697 26.0303 27.697 26.6515C27.697 30.9849 24.803 34.0606 20.4242 34.0606ZM29.7727 25.8485H35.3788C34.7273 27.7424 33.697 29.5303 32.2727 31.1061C31.803 30.5758 31.3636 30.0152 30.9697 29.4394L29.7727 25.8485ZM42.3939 40.8788C42.3939 41.7121 41.7121 42.394 40.8788 42.394H31.0303L34.0606 38.6061L32.4849 33.9091L37.1818 38.6061L38.5758 37.2121L33.5758 32.2879L33.6061 32.2576C35.3182 30.3636 36.5303 28.1818 37.2424 25.8636H40.1212V23.894H33.2576V21.9394H31.303V23.894H29.1212L27.1818 18.1515H40.8788C41.7121 18.1515 42.3939 18.8333 42.3939 19.6667V40.8788Z" fill="#1E386B"></path></svg>