<svg xmlns="http://www.w3.org/2000/svg" width="56" height="56" viewBox="0 0 56 56" fill="none"><rect width="56" height="56" rx="4" fill="#F2F5F9"></rect><path d="M40.9629 43H15.037C12.9915 43 11.3333 41.3211 11.3333 39.25V16.75C11.3333 14.6789 12.9915 13 15.037 13H33.5555C35.6011 13 37.2592 14.6789 37.2592 16.75V18.625M40.9629 43C38.9174 43 37.2592 41.3211 37.2592 39.25V18.625M40.9629 43C43.0085 43 44.6666 41.3211 44.6666 39.25V22.375C44.6666 20.3039 43.0085 18.625 40.9629 18.625H37.2592M29.8518 13H22.4444M18.7407 35.5H29.8518M18.7407 20.5H29.8518V28H18.7407V20.5Z" stroke="#1E386B" stroke-width="3.5" stroke-linecap="round" stroke-linejoin="round"></path></svg>